<?xml version="1.0" encoding="iso-8859-1"?>
<!-- Generator: Adobe Illustrator 26.3.1, SVG Export Plug-In . SVG Version: 6.00 Build 0)  -->
<svg version="1.1" id="Layer_1" xmlns="http://www.w3.org/2000/svg" xmlns:xlink="http://www.w3.org/1999/xlink" x="0px" y="0px"
	 viewBox="0 0 769.11 350.72" style="enable-background:new 0 0 769.11 350.72;" xml:space="preserve">
<g>
	<path style="fill:#FFB448;" d="M160.17,215.99v76.3c17.14,0,33.3-4.25,47.48-11.75c-1.02-0.48-2.01-0.97-3.01-1.47
		C186.86,270.07,160.17,249.23,160.17,215.99z"/>
	<path style="fill:#FFB448;" d="M115.69,237.02c-11.47,5.86-24.62,10.01-38.81,11.96c9.24,13.15,21.51,24.01,35.81,31.56
		c1.03-0.48,47.48-20.5,47.48-64.55v-42.05C160.16,199.64,142.94,223.09,115.69,237.02z"/>
	<path style="fill:#FFB448;" d="M160.16,131.89v42.05c0,27.13,19,50.06,44.48,63.08c11.48,5.86,24.62,10.01,38.81,11.96
		c8.41-11.96,14.31-25.82,16.92-40.81c-20.65-0.23-39.82-5.07-55.73-13.21C190.25,187.6,160.16,167.34,160.16,131.89z"/>
	<path style="fill:#FFB448;" d="M159.17,58.43c-36.79,0.13-71.23,7.75-100.74,20.92v44.73c21.23,0,40.95-4.88,57.26-13.22
		C151.19,92.72,157.8,65.8,159.17,58.43z"/>
	<path style="fill:#FFB448;" d="M160.16,58.43v31.4c0,0,0,0,0,0.01c0,33.69-27.29,54.29-44.48,63.07
		c-16.31,8.34-36.02,13.22-57.26,13.22v24.42c0,6.01,0.53,11.9,1.53,17.62c20.65-0.23,39.82-5.07,55.73-13.21
		c14.39-7.36,44.48-27.62,44.48-63.09V89.84c0.01,33.67,27.24,54.26,44.48,63.07c16.31,8.34,36.02,13.22,57.25,13.22V79.37
		C232.12,66.06,197.34,58.43,160.16,58.43z"/>
</g>
<path style="fill:#3C2D4D;" d="M415.66,128.41h-30.08v1.83c8.57,0.42,12.65,2.39,12.65,10.97v45.82c0,20.24-9,32.05-26,32.05
	c-18.41,0-29.38-13.77-29.38-31.35v-46.52c0-8.57,4.08-10.54,12.51-10.97v-1.83h-35v1.83c8.43,0.42,12.65,2.39,12.65,10.97v48.63
	c0,22.63,14.34,34.44,36.12,34.44c21.65,0,34.02-13.21,34.02-35.42v-47.65c0-8.57,3.93-10.54,12.51-10.97V128.41z M479.71,212.04
	v-38.79c0-15.88-10.12-23.19-20.52-23.19c-8.29,0-15.6,5.06-24.04,16.31v-16.31h-1.97l-17.29,5.62v1.97h1.26
	c7.17-0.14,9.14,3.23,9.14,9v45.4c0,6.33-5.06,7.59-10.4,8.43v1.83h29.66v-1.83c-5.34-0.84-10.4-2.11-10.4-8.43v-42.31
	c7.31-8.29,13.07-11.67,20.52-11.67c8.57,0,15.18,4.64,15.18,16.45v37.53c0,6.33-5.06,7.59-10.4,8.43v1.83h29.66v-1.83
	C484.77,219.64,479.71,218.37,479.71,212.04 M512.05,138.39c3.93,0,6.89-3.09,6.89-7.17c0-4.08-2.95-7.17-6.89-7.17
	c-4.22,0-7.17,3.09-7.17,7.17C504.88,135.3,507.84,138.39,512.05,138.39 M516.41,212.04v-61.98h-1.97l-17.29,5.62v1.97h1.27
	c7.17-0.14,9.13,3.23,9.13,9v45.4c0,6.33-5.06,7.59-10.4,8.43v1.83h29.66v-1.83C521.47,219.64,516.41,218.37,516.41,212.04
	 M547.47,191.52l-16.45,17.71c9.7,9.7,23.05,15.04,38.51,15.04c20.94,0,35.28-10.96,35.28-28.53c0-33.73-52.15-27.12-52.15-48.91
	c0-8.29,6.33-12.93,14.06-12.93c8.71,0,14.9,7.03,19.68,22.35l16.02-14.48c-3.37-6.89-15.6-15.32-34.01-15.32
	c-21.51,0-33.59,11.11-33.59,26.29c0,34.01,51.02,25.86,51.02,49.05c0,9.7-7.03,15.04-15.88,15.04
	C559.56,216.82,552.67,208.53,547.47,191.52 M710.68,173.25c0-24.46-17.57-46.8-49.62-46.8c-28.11,0-50.46,20.24-50.46,50.88
	c0,17.15,8.43,33.17,24.46,41.32c16.59,24.32,26.99,34.16,49.48,34.72l3.94-17.15c-13.92,1.83-31.49-3.8-46.66-14.76
	c5.48,1.83,11.67,2.81,18.55,2.81C688.33,224.27,710.68,203.89,710.68,173.25 M631.97,172.41c-0.14-22.07,9-38.37,26-38.37
	c20.66-0.14,31.06,22.35,31.21,44.27c0.14,21.65-8.86,38.23-25.86,38.37C642.66,216.82,632.11,194.05,631.97,172.41"/>
</svg>
